<svg preserveAspectRatio="none" overflow="visible" style="display: block;" width="19.951" height="39" viewBox="0 0 19.951 39" fill="none" xmlns="http://www.w3.org/2000/svg">
<path id="Vector" fill-rule="evenodd" clip-rule="evenodd" d="M16.491 38.9998H3.45972C1.55208 38.9998 0 37.4477 0 35.5403V24.131H3.04405C3.63933 24.131 3.63933 23.2258 3.04405 23.2258H0V11.8165C0 10.4623 0.782208 9.28754 1.91861 8.71968L1.91907 0.805973C1.93895 0.354656 2.28904 0 2.74858 0H17.2022C17.6597 0 18.0324 0.371566 18.0324 0.829967V8.71968C19.1688 9.28754 19.951 10.4623 19.951 11.8165V23.2258H16.9067C16.3114 23.2258 16.3114 24.131 16.9067 24.131H19.951V35.5407C19.951 37.4482 18.3987 39 16.491 39V38.9998ZM8.34995 27.513C7.80677 26.8492 7.63309 25.8627 7.86092 24.7363C8.08098 23.6502 9.18014 23.0592 9.53114 21.2535C9.60678 20.8637 10.1164 20.7531 10.3456 21.0794C14.7504 27.3482 10.0958 29.6476 8.34995 27.513ZM7.40732 27.4426C6.29788 26.6807 5.72316 25.6559 5.62033 25.4602C4.40989 23.6641 4.93159 20.7997 6.51794 19.4329C8.81497 17.4686 8.8801 14.0121 8.88079 13.9774C8.88787 13.5352 9.45505 13.3665 9.7039 13.7226C9.77794 13.8284 11.303 16.039 11.2736 18.5774C12.1675 17.393 11.2813 16.5251 11.9251 16.2237C12.1086 16.1375 12.3263 16.1848 12.4586 16.3375C14.3697 18.5456 15.7262 22.5202 14.6885 25.3492C14.2516 26.5398 13.4276 27.3965 12.274 27.8747C13.885 25.6988 12.2973 22.5455 10.9626 20.6454C10.3527 19.7775 8.99253 20.0682 8.79029 21.1093C8.46237 22.7978 7.37967 23.3113 7.12122 24.5864C6.9279 25.5407 6.96149 26.5761 7.40709 27.4424L7.40732 27.4426ZM10.8051 4.56322V8.35703H16.3727V1.65971H3.57809V8.35703H9.14541V4.56322C8.64519 4.56322 7.65183 4.67542 7.65183 3.73348C7.65183 3.27554 8.02363 2.90374 8.48157 2.90374H11.4687C12.561 2.90374 12.561 4.56345 11.4687 4.56345H10.8051V4.56322ZM4.97272 25.8474C4.21953 24.5871 4.03878 23.1694 4.40349 21.7537C5.10206 19.0413 7.06226 18.5625 7.82367 15.8101C7.97724 15.2552 8.11457 14.5461 8.12669 13.9648C8.14817 12.7884 9.66025 12.3423 10.3225 13.2907C10.7864 13.9547 11.189 14.7591 11.4863 15.6046C11.9875 15.2977 12.6433 15.398 13.0293 15.8436C15.1183 18.2561 16.5349 22.5078 15.3971 25.609C13.5683 30.5932 7.4873 30.0532 4.97295 25.8471L4.97272 25.8474ZM6.38837 36.1378H3.53604C3.28628 36.1378 3.08336 35.9347 3.08336 35.6852V30.7065C3.08336 30.1105 3.98851 30.1108 3.98851 30.7065V35.232H6.38837C6.98388 35.232 6.98297 36.1378 6.38837 36.1378ZM13.0512 35.0375C12.0359 34.022 12.0359 32.3696 13.0512 31.3539C14.7198 29.6843 17.5116 31.2188 16.7349 31.994C16.5578 32.1706 16.2712 32.1708 16.0946 31.994C15.4321 31.3308 14.3535 31.3315 13.6913 31.994C12.1831 33.5024 14.3172 35.8506 15.962 34.5165V33.6562L14.8921 33.6532C14.2966 33.6509 14.2993 32.7476 14.893 32.7476C17.1674 32.7476 16.8676 32.4567 16.8676 34.7174C16.8676 35.4263 14.5699 36.5556 13.0512 35.0378V35.0375ZM11.1961 33.6486H8.79646V35.6849C8.79601 36.2811 7.89132 36.2802 7.89132 35.6854V30.7067C7.89132 30.457 8.09401 30.254 8.344 30.254H11.1961C11.4518 30.254 11.6536 30.4631 11.6486 30.7207V33.1959C11.6488 33.4455 11.4459 33.6484 11.1961 33.6484V33.6486ZM8.79646 32.743H10.7434V31.1592H8.79646V32.743Z" fill="#FF6B00"/>
</svg>
