<svg preserveAspectRatio="none" overflow="visible" style="display: block;" width="39" height="41" viewBox="0 0 39 41" fill="none" xmlns="http://www.w3.org/2000/svg">
<g id="weight_18896002 1">
<path id="Vector" d="M7.61719 15.1828L2.54722 33.1972C2.26686 34.4528 2.53502 35.7597 3.30284 36.7719C4.05846 37.784 5.20409 38.3606 6.43504 38.3606H32.565C33.7959 38.3606 34.9415 37.784 35.6972 36.7719C36.465 35.7597 36.7331 34.4528 36.4407 33.1331L31.395 15.2468C30.9684 13.3506 29.3718 12.0181 27.5072 12.0181H25.8618C26.1056 11.3006 26.2397 10.519 26.2397 9.71182C26.2397 5.81685 23.2172 2.63937 19.5 2.63937C15.7828 2.63937 12.7603 5.81685 12.7603 9.71182C12.7603 10.519 12.8944 11.3006 13.1382 12.0181H11.4928C9.62816 12.0181 8.0316 13.3506 7.61719 15.1828ZM19.5 5.20187C21.8766 5.20187 23.8022 7.22627 23.8022 9.71182C23.8022 10.5575 23.5707 11.339 23.1806 12.0181H15.8194C15.4293 11.339 15.1978 10.5575 15.1978 9.71182C15.1978 7.22627 17.1234 5.20187 19.5 5.20187Z" fill="#FF6B00"/>
</g>
</svg>
